<?xml version="1.0" standalone="no"?>
<!DOCTYPE svg PUBLIC "-//W3C//DTD SVG 20010904//EN"
 "http://www.w3.org/TR/2001/REC-SVG-20010904/DTD/svg10.dtd">
<svg version="1.0" xmlns="http://www.w3.org/2000/svg"
 width="1063.000000pt" height="629.000000pt" viewBox="0 0 1063.000000 629.000000"
 preserveAspectRatio="xMidYMid meet">

<g transform="translate(0.000000,629.000000) scale(0.100000,-0.100000)"
fill="#000000" stroke="none">
<path d="M8955 5135 c-151 -38 -303 -99 -440 -177 -50 -29 -212 -137 -228
-152 -7 -6 -46 -39 -87 -73 -41 -34 -132 -117 -201 -185 -167 -162 -248 -250
-437 -476 -24 -29 -51 -52 -59 -52 -8 0 -32 13 -52 29 -95 74 -252 131 -361
131 -62 -1 -184 -27 -235 -51 -160 -76 -313 -238 -401 -422 -48 -103 -55 -107
-101 -67 -111 98 -273 104 -398 15 -28 -19 -53 -35 -57 -35 -4 0 -10 10 -14
23 -13 44 -76 166 -107 210 -94 132 -246 255 -357 290 -30 9 -79 24 -108 33
-57 18 -185 15 -247 -5 -194 -62 -184 -61 -159 -23 23 35 159 171 244 243 277
237 672 463 945 542 115 33 167 40 305 41 80 1 151 5 158 9 13 9 16 36 6 61
-9 24 -63 53 -123 65 -60 13 -238 -6 -341 -35 -30 -8 -68 -19 -85 -23 -32 -9
-56 -19 -143 -57 -29 -13 -55 -24 -58 -24 -3 0 -45 -20 -92 -44 -392 -198
-698 -438 -1048 -821 -73 -80 -331 -383 -387 -455 -7 -9 -46 -56 -87 -105 -41
-49 -82 -99 -92 -110 -85 -104 -192 -225 -199 -225 -15 0 -10 27 10 62 11 18
39 85 64 148 24 63 47 124 52 135 12 30 118 345 160 475 20 63 43 129 50 145
8 17 26 66 41 110 14 44 32 91 39 105 7 14 30 59 51 100 20 41 57 104 81 140
64 96 55 140 -29 140 -57 0 -152 -90 -381 -360 -73 -86 -166 -200 -207 -254
-221 -290 -437 -562 -482 -611 -21 -22 -38 -43 -38 -47 0 -5 -4 -8 -10 -8 -9
0 2 30 49 132 11 26 21 49 21 53 0 3 9 24 19 48 29 64 49 135 66 232 39 223
-5 429 -126 599 -39 53 -166 166 -215 190 -22 10 -47 22 -57 27 -37 20 -105
39 -160 45 -48 6 -57 4 -57 -9 0 -35 43 -67 102 -77 128 -20 196 -92 252 -264
19 -59 22 -285 5 -350 -6 -22 -17 -68 -26 -101 -23 -91 -75 -259 -83 -270 -4
-5 -15 -30 -24 -55 -53 -140 -228 -485 -316 -625 -131 -210 -210 -313 -357
-466 l-73 -76 20 -26 c53 -67 121 -39 345 142 186 150 375 333 565 547 68 76
266 318 316 385 153 206 274 359 285 359 16 0 10 -29 -17 -88 -14 -31 -30 -66
-35 -77 -5 -11 -20 -54 -35 -95 -14 -41 -32 -88 -39 -105 -7 -16 -24 -61 -38
-100 -99 -277 -140 -377 -218 -537 -50 -100 -144 -258 -176 -293 -104 -115
-107 -121 -73 -155 49 -49 117 -13 334 175 167 145 385 376 654 695 90 107
183 217 206 244 22 27 47 58 54 68 7 10 20 18 28 18 17 0 18 5 -5 -66 -60
-186 -79 -351 -58 -509 44 -325 158 -541 368 -699 107 -81 215 -123 336 -132
153 -11 288 27 413 114 290 204 441 591 390 1001 -13 98 -10 104 77 147 79 40
165 39 249 -3 91 -47 89 -41 71 -201 -13 -121 -13 -152 -1 -252 30 -246 112
-419 275 -581 87 -85 166 -134 324 -199 17 -6 80 -14 141 -17 128 -7 176 4
309 71 130 65 315 267 315 344 0 39 -23 62 -63 62 -41 0 -47 -4 -99 -71 -68
-88 -112 -134 -169 -177 -62 -46 -103 -65 -196 -88 -114 -29 -260 6 -378 91
-65 46 -88 70 -152 155 -41 54 -123 218 -123 245 0 8 -4 17 -10 20 -12 7 -14
75 -2 75 5 0 27 16 49 35 68 58 69 125 5 189 -20 20 -48 42 -62 49 -16 8 -26
22 -28 41 -4 31 24 169 39 198 5 10 9 22 9 28 0 21 85 187 120 235 84 112 164
178 275 223 49 20 78 24 155 25 94 0 138 -9 220 -48 74 -35 94 -50 191 -141
85 -80 102 -92 121 -85 13 4 30 20 38 34 14 26 10 45 -21 88 -20 27 -3 60 101
188 500 622 975 930 1437 931 109 0 158 38 133 104 -5 13 -18 30 -29 35 -27
15 -254 12 -316 -4z m-3617 -1124 c122 -37 243 -131 329 -256 74 -107 142
-305 143 -412 0 -40 -3 -44 -55 -78 -65 -41 -95 -85 -95 -139 0 -32 7 -45 37
-73 20 -19 47 -39 60 -44 30 -11 30 -48 0 -133 -56 -153 -206 -336 -319 -389
-120 -57 -231 -70 -361 -42 -87 18 -152 54 -232 127 -167 154 -251 347 -262
605 -9 198 16 329 90 481 35 73 141 214 187 249 41 32 165 96 207 108 73 20
197 18 271 -4z"/>
<path d="M4870 3791 c-40 -27 -109 -113 -110 -137 0 -6 -6 -24 -14 -40 -8 -16
-17 -54 -21 -84 l-6 -54 19 25 c11 14 37 54 58 89 41 71 151 210 166 210 5 0
6 5 3 10 -11 18 -51 10 -95 -19z"/>
<path d="M6825 3803 c-38 -19 -91 -69 -115 -108 -23 -37 -70 -179 -70 -211 0
-38 13 -27 45 38 34 69 122 194 172 244 18 18 33 38 33 44 0 14 -29 11 -65 -7z"/>
<path d="M4273 1719 c-82 -14 -158 -55 -213 -116 -62 -68 -81 -111 -83 -185
-2 -54 1 -60 33 -92 93 -91 310 -63 429 55 57 57 83 111 88 184 3 49 0 66 -17
93 -34 55 -130 80 -237 61z m97 -109 c39 -39 23 -130 -34 -185 -57 -55 -145
-74 -193 -40 -61 43 -13 179 82 228 44 24 120 22 145 -3z"/>
<path d="M5408 1722 c-20 -4 -34 -52 -17 -63 21 -13 83 -8 102 8 47 43 2 73
-85 55z"/>
<path d="M6902 1719 c-122 -18 -221 -90 -274 -197 -53 -107 -39 -185 41 -224
48 -24 155 -32 212 -16 27 8 75 73 61 82 -4 2 -43 5 -85 5 -69 0 -80 3 -97 23
-30 36 -25 88 12 139 17 24 36 49 42 54 26 24 77 39 156 44 l84 6 10 33 c5 20
5 36 0 42 -15 14 -95 19 -162 9z"/>
<path d="M1656 1704 c-9 -8 -16 -21 -16 -27 -1 -7 -5 -43 -10 -82 -32 -225
-38 -300 -27 -307 7 -4 38 -8 70 -8 69 0 78 7 152 128 75 121 85 110 53 -57
-8 -43 -7 -55 4 -62 15 -10 119 -12 143 -3 8 4 51 59 94 123 43 64 104 152
135 195 75 105 74 123 -7 111 -42 -6 -45 -10 -126 -131 -90 -136 -117 -155
-105 -76 3 26 13 72 20 102 17 67 18 96 2 102 -15 6 -107 1 -125 -6 -7 -3 -20
-20 -29 -38 -42 -82 -137 -228 -144 -221 -8 7 -4 40 20 188 5 33 6 62 2 66 -4
4 -26 9 -49 13 -31 4 -46 2 -57 -10z"/>
<path d="M6367 1711 c-31 -6 -31 -7 -97 -181 -18 -47 -41 -103 -50 -125 -33
-76 -42 -104 -35 -114 7 -12 84 -15 101 -3 12 8 31 49 68 147 33 86 62 157 88
213 28 63 8 80 -75 63z"/>
<path d="M5145 1669 c-11 -5 -28 -23 -37 -39 -10 -18 -25 -30 -37 -30 -11 0
-28 -12 -37 -26 -16 -24 -16 -27 0 -55 16 -28 16 -31 -14 -101 -16 -40 -30
-83 -30 -95 0 -43 67 -64 139 -44 13 3 35 23 48 44 l23 37 -22 0 c-45 0 -53
14 -38 62 21 67 47 98 80 98 23 0 33 7 45 30 18 34 13 50 -16 50 -16 0 -19 7
-19 40 0 39 -1 40 -32 39 -18 0 -42 -5 -53 -10z"/>
<path d="M8022 1641 c-21 -23 -45 -41 -54 -41 -10 0 -25 -14 -33 -31 -15 -28
-15 -32 -1 -48 21 -24 21 -29 -14 -107 -17 -37 -30 -79 -28 -93 4 -37 46 -54
109 -46 42 6 54 12 70 39 24 40 24 43 -6 50 -32 8 -33 45 -2 106 17 36 28 46
52 48 33 4 54 27 55 60 0 16 -6 22 -21 22 -18 0 -20 5 -17 38 3 36 2 37 -35
40 -34 3 -43 -2 -75 -37z"/>
<path d="M2413 1603 c-32 -4 -63 -34 -63 -61 0 -10 7 -12 23 -9 12 3 45 9 73
13 44 5 52 4 58 -12 10 -25 -14 -40 -83 -55 -122 -25 -191 -76 -191 -141 0
-31 5 -40 30 -53 40 -21 93 -19 113 3 22 24 21 30 -3 50 -19 16 -19 19 -5 39
18 26 82 50 97 35 6 -6 2 -27 -13 -62 -19 -43 -20 -53 -8 -61 21 -13 85 -11
97 4 21 25 102 230 102 258 0 44 -32 59 -120 57 -41 0 -90 -3 -107 -5z"/>
<path d="M2850 1601 c-72 -22 -140 -82 -180 -160 -56 -111 15 -197 131 -158
24 9 48 12 52 8 4 -4 -6 -40 -22 -79 -16 -40 -25 -75 -20 -78 15 -9 100 -7
109 3 3 4 28 64 55 133 26 69 63 161 82 205 48 110 50 121 21 128 -32 9 -197
7 -228 -2z m86 -113 c-9 -43 -51 -106 -81 -120 -32 -14 -75 -3 -75 21 0 28 26
84 47 102 24 21 41 27 82 28 33 1 33 0 27 -31z"/>
<path d="M3260 1601 c-38 -9 -58 -24 -62 -46 -3 -22 2 -23 88 -10 43 6 52 5
58 -10 8 -23 -8 -41 -42 -48 -122 -25 -179 -51 -211 -96 -35 -49 -27 -92 22
-110 42 -16 79 -13 107 9 l25 20 -22 19 c-43 36 -23 69 47 78 47 7 49 -1 21
-62 -24 -53 -18 -65 33 -65 23 0 49 6 57 13 15 12 90 194 103 249 5 20 1 33
-14 48 -17 17 -32 20 -102 19 -46 -1 -94 -4 -108 -8z"/>
<path d="M3751 1601 c-8 -5 -47 -7 -86 -4 l-71 6 -11 -29 c-6 -16 -21 -56 -33
-89 -12 -33 -33 -84 -47 -114 -32 -72 -28 -85 25 -89 24 -2 49 2 57 8 7 6 23
40 36 75 30 87 68 131 126 148 39 11 47 19 58 50 7 20 10 39 7 42 -8 8 -45 6
-61 -4z"/>
<path d="M4651 1597 c-30 -11 -37 -20 -57 -77 -12 -36 -38 -103 -58 -150 -20
-46 -36 -88 -36 -92 0 -5 -11 -31 -25 -60 -40 -84 -33 -97 46 -90 37 4 38 6
69 83 18 44 36 81 40 84 4 3 28 -3 53 -12 38 -14 51 -15 90 -4 95 27 170 127
171 229 1 47 -3 57 -27 78 -26 22 -36 24 -130 23 -56 0 -117 -5 -136 -12z
m154 -84 c43 -43 -20 -159 -82 -151 -42 5 -54 35 -37 88 25 73 80 103 119 63z"/>
<path d="M5636 1603 c-107 -27 -209 -202 -166 -284 35 -65 201 -63 234 3 19
37 12 52 -21 43 -39 -9 -80 3 -86 27 -7 27 14 77 43 103 15 14 41 21 88 25 63
5 66 6 73 34 12 45 -3 56 -80 55 -36 -1 -75 -4 -85 -6z"/>
<path d="M5955 1601 c-28 -6 -66 -53 -53 -66 3 -3 33 -1 67 6 55 12 63 11 79
-5 16 -16 16 -18 0 -30 -9 -7 -43 -18 -75 -26 -79 -17 -122 -37 -160 -73 -26
-25 -33 -39 -33 -69 0 -35 4 -41 35 -54 47 -19 78 -18 106 5 l24 19 -21 24
c-26 29 -21 53 14 67 71 27 88 9 56 -61 -21 -47 -11 -58 49 -56 47 2 52 8 106
146 47 117 50 145 19 166 -23 17 -150 21 -213 7z"/>
<path d="M7206 1603 c-76 -20 -165 -120 -180 -204 -15 -87 29 -124 149 -124
90 0 119 9 133 40 19 42 16 46 -43 39 -73 -9 -117 9 -113 45 3 26 3 26 115 31
61 3 115 9 120 13 4 5 13 25 19 46 14 49 -4 97 -41 111 -27 10 -124 12 -159 3z
m83 -77 c18 -22 3 -43 -35 -49 -63 -10 -86 16 -42 47 28 20 62 20 77 2z"/>
<path d="M7677 1594 c-21 -12 -32 -13 -42 -4 -7 6 -37 10 -66 8 l-53 -3 -44
-105 c-57 -138 -74 -188 -67 -200 7 -12 85 -13 100 -2 6 4 21 34 33 67 43 113
107 179 152 155 27 -15 26 -55 -6 -117 -14 -28 -26 -64 -27 -80 -2 -27 -1 -28
47 -28 46 0 51 3 69 33 20 33 75 179 84 219 3 13 -2 34 -11 48 -15 22 -23 25
-79 25 -36 -1 -74 -7 -90 -16z"/>
<path d="M8321 1598 c-53 -15 -134 -104 -155 -170 -27 -86 -10 -123 68 -148
41 -13 153 -8 183 8 8 5 22 24 29 41 l13 31 -64 -6 c-76 -8 -119 11 -113 49 3
21 8 22 115 25 108 3 114 4 129 28 9 13 17 43 17 66 0 33 -6 47 -27 65 -23 19
-38 23 -94 22 -37 0 -82 -5 -101 -11z m98 -72 c11 -13 6 -45 -8 -47 -3 0 -17
-2 -31 -4 -41 -5 -59 3 -53 26 9 34 71 51 92 25z"/>
<path d="M8801 1601 c-8 -5 -45 -7 -82 -4 -66 6 -67 5 -82 -23 -8 -16 -27 -62
-41 -103 -15 -41 -37 -96 -50 -122 -26 -55 -20 -69 32 -69 48 0 69 15 82 57
37 116 80 166 149 178 40 7 51 21 51 73 0 16 -6 22 -22 22 -13 0 -29 -4 -37
-9z"/>
<path d="M5334 1565 c-7 -19 -14 -37 -14 -40 0 -3 -21 -55 -47 -116 -39 -92
-44 -112 -32 -120 21 -13 83 -11 100 4 20 16 119 260 119 293 0 10 -15 14 -56
14 -53 0 -55 -1 -70 -35z"/>
</g>
</svg>
